<?xml version="1.0" ?><svg data-name="Layer 2" id="Layer_2" viewBox="0 0 2010 2010" xmlns="http://www.w3.org/2000/svg" xmlns:xlink="http://www.w3.org/1999/xlink"><defs><style>.cls-1{fill:url(#linear-gradient);}.cls-2{fill:url(#linear-gradient-2);}.cls-3{fill:url(#linear-gradient-3);}.cls-4{fill:url(#linear-gradient-4);}.cls-5{fill:url(#linear-gradient-5);}.cls-6{fill:url(#linear-gradient-6);}</style><linearGradient gradientUnits="userSpaceOnUse" id="linear-gradient" x1="122.54" x2="1764.48" y1="1595.05" y2="91.44"><stop offset="0" stop-color="#69bbff"/><stop offset="1" stop-color="#9de0f4"/></linearGradient><linearGradient gradientUnits="userSpaceOnUse" id="linear-gradient-2" x1="1282.21" x2="524.39" y1="735.9" y2="1932.77"><stop offset="0" stop-color="#69bbff"/><stop offset="1" stop-color="#1798ff"/></linearGradient><linearGradient id="linear-gradient-3" x1="1672.16" x2="914.34" xlink:href="#linear-gradient-2" y1="982.8" y2="2179.67"/><linearGradient id="linear-gradient-4" x1="946" x2="188.18" xlink:href="#linear-gradient-2" y1="523.01" y2="1719.89"/><linearGradient id="linear-gradient-5" x1="1335.94" x2="578.12" xlink:href="#linear-gradient-2" y1="769.91" y2="1966.79"/><linearGradient id="linear-gradient-6" x1="1725.89" x2="968.07" xlink:href="#linear-gradient-2" y1="1016.82" y2="2213.69"/></defs><path class="cls-1" d="M1226.14,1253.82H632.8a426.2,426.2,0,1,1,0-852.4A428.71,428.71,0,0,1,701,406.85,588.42,588.42,0,0,1,885.33,190.56c99.83-71.44,217.68-109.2,340.81-109.2a586.36,586.36,0,0,1,228.21,1126.36A582.6,582.6,0,0,1,1226.14,1253.82Z"/><path class="cls-2" d="M585,1843.08h0c-47.24-27.28-52.88-93.27-10.94-128.16L688.11,1620a23.66,23.66,0,0,1,27-2.31h0a23.66,23.66,0,0,1,11.49,24.52l-25.15,146.25C692.18,1842.24,632.21,1870.35,585,1843.08Z"/><path class="cls-3" d="M1131.24,1843.08h0c-47.24-27.28-52.87-93.27-10.94-128.16L1234.38,1620a23.66,23.66,0,0,1,27-2.31h0a23.69,23.69,0,0,1,11.5,24.52l-25.16,146.25C1238.45,1842.24,1178.49,1870.35,1131.24,1843.08Z"/><path class="cls-4" d="M311.83,1530.57h0c-47.24-27.28-52.88-93.27-10.94-128.16L415,1307.5a23.68,23.68,0,0,1,27-2.3h0a23.68,23.68,0,0,1,11.5,24.52L428.29,1476C419,1529.73,359.08,1557.85,311.83,1530.57Z"/><path class="cls-5" d="M858.11,1530.57h0c-47.25-27.28-52.88-93.27-11-128.16l114.08-94.91a23.69,23.69,0,0,1,27-2.3h0a23.69,23.69,0,0,1,11.49,24.52L974.56,1476C965.32,1529.73,905.35,1557.85,858.11,1530.57Z"/><path class="cls-6" d="M1404.38,1530.57h0c-47.24-27.28-52.88-93.27-10.94-128.16l114.08-94.91a23.68,23.68,0,0,1,27-2.3h0a23.68,23.68,0,0,1,11.5,24.52L1520.84,1476C1511.59,1529.73,1451.62,1557.85,1404.38,1530.57Z"/></svg>