<?xml version="1.0" ?><svg data-name="Layer 18" id="Layer_18" viewBox="0 0 32 32" xmlns="http://www.w3.org/2000/svg"><title/><circle cx="20" cy="12" r="5" style="fill:#a9e5ff"/><path d="M29,19a5,5,0,0,1-5,5H6.5a3.5,3.5,0,0,1,0-7,3.08,3.08,0,0,1,.53.04A4.881,4.881,0,0,1,7,16.5a7.493,7.493,0,0,1,14.73-1.95A4.943,4.943,0,0,1,24,14,5,5,0,0,1,29,19Z" style="fill:#a9e5ff"/><path d="M5.895,26.553a1,1,0,1,0-1.789.895l1,2a1,1,0,0,0,1.789-.895Z" style="fill:#158fcc"/><path d="M26.895,26.553a1,1,0,1,0-1.789.895l1,2a1,1,0,0,0,1.789-.895Z" style="fill:#158fcc"/><path d="M16.895,26.553a1,1,0,1,0-1.789.895l1,2a1,1,0,0,0,1.789-.895Z" style="fill:#158fcc"/><path d="M25.856,13.3A5.993,5.993,0,0,0,20,6a5.941,5.941,0,0,0-4.525,2.074A8.424,8.424,0,0,0,14.5,8a8.511,8.511,0,0,0-8.487,8.026A4.5,4.5,0,0,0,6.5,25H9.01a0.978,0.978,0,0,0,.1.447l1,2a1,1,0,0,0,1.789-.895L11.118,25H19.01a0.978,0.978,0,0,0,.1.447l1,2a1,1,0,0,0,1.789-.895L21.118,25H24A6,6,0,0,0,25.856,13.3ZM20,8a3.951,3.951,0,0,1,3.856,5.01,5.921,5.921,0,0,0-1.517.224A8.471,8.471,0,0,0,17.8,8.689,3.949,3.949,0,0,1,20,8Zm4,15H6.5a2.5,2.5,0,0,1,0-5,2.062,2.062,0,0,1,.354.024,1,1,0,0,0,1.169-1.1A3.9,3.9,0,0,1,8,16.5a6.493,6.493,0,0,1,12.764-1.693,1,1,0,0,0,1.424.632A3.931,3.931,0,0,1,24,15,4,4,0,0,1,24,23Z" style="fill:#158fcc"/><path d="M20,5a1,1,0,0,0,1-1V3a1,1,0,0,0-2,0V4A1,1,0,0,0,20,5Z" style="fill:#158fcc"/><path d="M27,12a1,1,0,0,0,1,1h1a1,1,0,0,0,0-2H28A1,1,0,0,0,27,12Z" style="fill:#158fcc"/><path d="M25.657,7.343a1,1,0,0,0,.707-0.293l0.707-.707a1,1,0,0,0-1.414-1.414l-0.707.707A1,1,0,0,0,25.657,7.343Z" style="fill:#158fcc"/><path d="M13.636,7.05A1,1,0,0,0,15.05,5.636l-0.707-.707a1,1,0,0,0-1.414,1.414Z" style="fill:#158fcc"/><path d="M17.49,15a1,1,0,0,0-1.364-.372L15,15.276V14a1,1,0,0,0-2,0v1.276l-1.126-.644a1,1,0,1,0-.992,1.736L11.986,17l-1.1.632a1,1,0,1,0,.992,1.736L13,18.724V20a1,1,0,0,0,2,0V18.724l1.126,0.644a1,1,0,1,0,.992-1.736L16.014,17l1.1-.632A1,1,0,0,0,17.49,15Z" style="fill:#158fcc"/></svg>